<mxfile host="app.diagrams.net" agent="Mozilla/5.0 (Windows NT 10.0; Win64; x64) AppleWebKit/537.36 (KHTML, like Gecko) Chrome/130.0.0.0 Safari/537.36" version="24.8.0">
  <diagram name="第 1 页" id="787F-ueY0vVpr-FbqrY-">
    <mxGraphModel dx="2049" dy="3592" grid="1" gridSize="10" guides="1" tooltips="1" connect="1" arrows="1" fold="1" page="1" pageScale="1" pageWidth="1169" pageHeight="827" background="#ffffff" math="0" shadow="0">
      <root>
        <mxCell id="0" />
        <mxCell id="1" parent="0" />
        <mxCell id="V4Yo3UVCxOmrbkKmvPGk-21" value="" style="rounded=0;whiteSpace=wrap;html=1;" parent="1" vertex="1">
          <mxGeometry x="859" y="-1320" width="310" height="800" as="geometry" />
        </mxCell>
        <mxCell id="lay7LSM0dUMBEN4WzvLE-6" value="" style="rounded=0;whiteSpace=wrap;html=1;" parent="1" vertex="1">
          <mxGeometry x="1400" y="-210" width="480" height="440" as="geometry" />
        </mxCell>
        <mxCell id="a5TVN6-MtMvruNO3docQ-2" value="" style="rounded=0;whiteSpace=wrap;html=1;" parent="1" vertex="1">
          <mxGeometry x="300" y="210" width="120" height="900" as="geometry" />
        </mxCell>
        <mxCell id="a5TVN6-MtMvruNO3docQ-3" value="stext=skernel=0x80200000" style="text;html=1;align=center;verticalAlign=middle;resizable=0;points=[];autosize=1;strokeColor=none;fillColor=none;" parent="1" vertex="1">
          <mxGeometry x="140" y="200" width="170" height="30" as="geometry" />
        </mxCell>
        <mxCell id="a5TVN6-MtMvruNO3docQ-8" value="" style="endArrow=none;html=1;rounded=0;exitX=0.001;exitY=0.048;exitDx=0;exitDy=0;exitPerimeter=0;entryX=1.003;entryY=0.048;entryDx=0;entryDy=0;entryPerimeter=0;" parent="1" edge="1">
          <mxGeometry width="50" height="50" relative="1" as="geometry">
            <mxPoint x="300" y="294.81" as="sourcePoint" />
            <mxPoint x="420" y="294.81" as="targetPoint" />
          </mxGeometry>
        </mxCell>
        <mxCell id="a5TVN6-MtMvruNO3docQ-9" value="strampoline" style="text;html=1;align=center;verticalAlign=middle;resizable=0;points=[];autosize=1;strokeColor=none;fillColor=none;" parent="1" vertex="1">
          <mxGeometry x="210" y="280" width="90" height="30" as="geometry" />
        </mxCell>
        <mxCell id="a5TVN6-MtMvruNO3docQ-10" value="" style="endArrow=none;html=1;rounded=0;exitX=0.001;exitY=0.048;exitDx=0;exitDy=0;exitPerimeter=0;entryX=1.003;entryY=0.048;entryDx=0;entryDy=0;entryPerimeter=0;" parent="1" edge="1">
          <mxGeometry width="50" height="50" relative="1" as="geometry">
            <mxPoint x="300" y="334.81" as="sourcePoint" />
            <mxPoint x="420" y="334.81" as="targetPoint" />
          </mxGeometry>
        </mxCell>
        <mxCell id="a5TVN6-MtMvruNO3docQ-11" value="srodata=etext" style="text;html=1;align=center;verticalAlign=middle;resizable=0;points=[];autosize=1;strokeColor=none;fillColor=none;" parent="1" vertex="1">
          <mxGeometry x="205" y="320" width="100" height="30" as="geometry" />
        </mxCell>
        <mxCell id="a5TVN6-MtMvruNO3docQ-12" value="" style="endArrow=none;html=1;rounded=0;exitX=0.001;exitY=0.048;exitDx=0;exitDy=0;exitPerimeter=0;entryX=1.003;entryY=0.048;entryDx=0;entryDy=0;entryPerimeter=0;" parent="1" edge="1">
          <mxGeometry width="50" height="50" relative="1" as="geometry">
            <mxPoint x="300" y="374.81" as="sourcePoint" />
            <mxPoint x="420" y="374.81" as="targetPoint" />
          </mxGeometry>
        </mxCell>
        <mxCell id="a5TVN6-MtMvruNO3docQ-13" value="sdata=erodata" style="text;html=1;align=center;verticalAlign=middle;resizable=0;points=[];autosize=1;strokeColor=none;fillColor=none;" parent="1" vertex="1">
          <mxGeometry x="200" y="360" width="100" height="30" as="geometry" />
        </mxCell>
        <mxCell id="a5TVN6-MtMvruNO3docQ-14" value="" style="endArrow=none;html=1;rounded=0;exitX=0.001;exitY=0.048;exitDx=0;exitDy=0;exitPerimeter=0;entryX=1.003;entryY=0.048;entryDx=0;entryDy=0;entryPerimeter=0;" parent="1" edge="1">
          <mxGeometry width="50" height="50" relative="1" as="geometry">
            <mxPoint x="300" y="424.81" as="sourcePoint" />
            <mxPoint x="420" y="424.81" as="targetPoint" />
          </mxGeometry>
        </mxCell>
        <mxCell id="a5TVN6-MtMvruNO3docQ-15" value="sbss_with_stack=edata" style="text;html=1;align=center;verticalAlign=middle;resizable=0;points=[];autosize=1;strokeColor=none;fillColor=none;" parent="1" vertex="1">
          <mxGeometry x="155" y="410" width="150" height="30" as="geometry" />
        </mxCell>
        <mxCell id="a5TVN6-MtMvruNO3docQ-16" value="" style="endArrow=none;html=1;rounded=0;exitX=0.001;exitY=0.048;exitDx=0;exitDy=0;exitPerimeter=0;entryX=1.003;entryY=0.048;entryDx=0;entryDy=0;entryPerimeter=0;" parent="1" edge="1">
          <mxGeometry width="50" height="50" relative="1" as="geometry">
            <mxPoint x="300" y="464.81" as="sourcePoint" />
            <mxPoint x="420" y="464.81" as="targetPoint" />
          </mxGeometry>
        </mxCell>
        <mxCell id="a5TVN6-MtMvruNO3docQ-17" value="sbss" style="text;html=1;align=center;verticalAlign=middle;resizable=0;points=[];autosize=1;strokeColor=none;fillColor=none;" parent="1" vertex="1">
          <mxGeometry x="240" y="450" width="50" height="30" as="geometry" />
        </mxCell>
        <mxCell id="a5TVN6-MtMvruNO3docQ-18" value="ekernel=ebss" style="text;html=1;align=center;verticalAlign=middle;resizable=0;points=[];autosize=1;strokeColor=none;fillColor=none;" parent="1" vertex="1">
          <mxGeometry x="190" y="490" width="100" height="30" as="geometry" />
        </mxCell>
        <mxCell id="a5TVN6-MtMvruNO3docQ-19" value="" style="endArrow=none;html=1;rounded=0;exitX=0.001;exitY=0.048;exitDx=0;exitDy=0;exitPerimeter=0;entryX=1.003;entryY=0.048;entryDx=0;entryDy=0;entryPerimeter=0;" parent="1" edge="1">
          <mxGeometry width="50" height="50" relative="1" as="geometry">
            <mxPoint x="300" y="504.81" as="sourcePoint" />
            <mxPoint x="420" y="504.81" as="targetPoint" />
          </mxGeometry>
        </mxCell>
        <mxCell id="0a2UW_Dp2ymvLxH2NWsW-1" value="" style="rounded=0;whiteSpace=wrap;html=1;" parent="1" vertex="1">
          <mxGeometry x="480" y="290" width="120" height="130" as="geometry" />
        </mxCell>
        <mxCell id="0a2UW_Dp2ymvLxH2NWsW-3" value=".bss.stack" style="text;html=1;align=center;verticalAlign=middle;resizable=0;points=[];autosize=1;strokeColor=none;fillColor=none;" parent="1" vertex="1">
          <mxGeometry x="320" y="430" width="80" height="30" as="geometry" />
        </mxCell>
        <mxCell id="0a2UW_Dp2ymvLxH2NWsW-5" value="" style="endArrow=none;html=1;rounded=0;exitX=0.001;exitY=0.048;exitDx=0;exitDy=0;exitPerimeter=0;entryX=1.003;entryY=0.048;entryDx=0;entryDy=0;entryPerimeter=0;" parent="1" edge="1">
          <mxGeometry width="50" height="50" relative="1" as="geometry">
            <mxPoint x="480" y="334.83" as="sourcePoint" />
            <mxPoint x="600" y="334.83" as="targetPoint" />
          </mxGeometry>
        </mxCell>
        <mxCell id="0a2UW_Dp2ymvLxH2NWsW-6" value="boot_stack_lower_bound" style="text;html=1;align=center;verticalAlign=middle;resizable=0;points=[];autosize=1;strokeColor=none;fillColor=none;" parent="1" vertex="1">
          <mxGeometry x="600" y="280" width="160" height="30" as="geometry" />
        </mxCell>
        <mxCell id="0a2UW_Dp2ymvLxH2NWsW-7" value="boot_stack" style="text;html=1;align=center;verticalAlign=middle;resizable=0;points=[];autosize=1;strokeColor=none;fillColor=none;" parent="1" vertex="1">
          <mxGeometry x="500" y="300" width="80" height="30" as="geometry" />
        </mxCell>
        <mxCell id="0a2UW_Dp2ymvLxH2NWsW-8" value="boot_stack_top" style="text;html=1;align=center;verticalAlign=middle;resizable=0;points=[];autosize=1;strokeColor=none;fillColor=none;" parent="1" vertex="1">
          <mxGeometry x="610" y="320" width="100" height="30" as="geometry" />
        </mxCell>
        <mxCell id="0a2UW_Dp2ymvLxH2NWsW-9" value="" style="rounded=0;whiteSpace=wrap;html=1;" parent="1" vertex="1">
          <mxGeometry x="480" y="500" width="120" height="180" as="geometry" />
        </mxCell>
        <mxCell id="0a2UW_Dp2ymvLxH2NWsW-10" value="" style="endArrow=none;html=1;rounded=0;exitX=0.001;exitY=0.048;exitDx=0;exitDy=0;exitPerimeter=0;entryX=1.003;entryY=0.048;entryDx=0;entryDy=0;entryPerimeter=0;" parent="1" edge="1">
          <mxGeometry width="50" height="50" relative="1" as="geometry">
            <mxPoint x="480" y="560" as="sourcePoint" />
            <mxPoint x="600" y="560" as="targetPoint" />
          </mxGeometry>
        </mxCell>
        <mxCell id="0a2UW_Dp2ymvLxH2NWsW-11" value="" style="endArrow=none;html=1;rounded=0;exitX=0.001;exitY=0.048;exitDx=0;exitDy=0;exitPerimeter=0;entryX=1.003;entryY=0.048;entryDx=0;entryDy=0;entryPerimeter=0;" parent="1" edge="1">
          <mxGeometry width="50" height="50" relative="1" as="geometry">
            <mxPoint x="480" y="610" as="sourcePoint" />
            <mxPoint x="600" y="610" as="targetPoint" />
          </mxGeometry>
        </mxCell>
        <mxCell id="0a2UW_Dp2ymvLxH2NWsW-12" value="HEAP_SPACE" style="text;html=1;align=center;verticalAlign=middle;resizable=0;points=[];autosize=1;strokeColor=none;fillColor=none;" parent="1" vertex="1">
          <mxGeometry x="490" y="570" width="100" height="30" as="geometry" />
        </mxCell>
        <mxCell id="0a2UW_Dp2ymvLxH2NWsW-13" value="KERNEL_HEAP_SIZE =&amp;nbsp;0x200_0000" style="text;html=1;align=center;verticalAlign=middle;resizable=0;points=[];autosize=1;strokeColor=none;fillColor=none;" parent="1" vertex="1">
          <mxGeometry x="610" y="570" width="220" height="30" as="geometry" />
        </mxCell>
        <mxCell id="0a2UW_Dp2ymvLxH2NWsW-19" value="MEMORY_END = 0x88000000" style="text;html=1;align=center;verticalAlign=middle;resizable=0;points=[];autosize=1;strokeColor=none;fillColor=none;" parent="1" vertex="1">
          <mxGeometry x="110" y="645" width="190" height="30" as="geometry" />
        </mxCell>
        <mxCell id="0a2UW_Dp2ymvLxH2NWsW-20" value="ALIGN_UP(ekernel,PAGE_SIZE)" style="text;html=1;align=center;verticalAlign=middle;resizable=0;points=[];autosize=1;strokeColor=none;fillColor=none;" parent="1" vertex="1">
          <mxGeometry x="100" y="558" width="200" height="30" as="geometry" />
        </mxCell>
        <mxCell id="0a2UW_Dp2ymvLxH2NWsW-21" value="" style="endArrow=none;html=1;rounded=0;exitX=0.001;exitY=0.048;exitDx=0;exitDy=0;exitPerimeter=0;entryX=1.003;entryY=0.048;entryDx=0;entryDy=0;entryPerimeter=0;" parent="1" edge="1">
          <mxGeometry width="50" height="50" relative="1" as="geometry">
            <mxPoint x="300" y="572.7099999999999" as="sourcePoint" />
            <mxPoint x="420" y="572.7099999999999" as="targetPoint" />
          </mxGeometry>
        </mxCell>
        <mxCell id="0a2UW_Dp2ymvLxH2NWsW-22" value="" style="endArrow=none;html=1;rounded=0;exitX=0.001;exitY=0.048;exitDx=0;exitDy=0;exitPerimeter=0;entryX=1.003;entryY=0.048;entryDx=0;entryDy=0;entryPerimeter=0;" parent="1" edge="1">
          <mxGeometry width="50" height="50" relative="1" as="geometry">
            <mxPoint x="300" y="659.7099999999999" as="sourcePoint" />
            <mxPoint x="420" y="659.7099999999999" as="targetPoint" />
          </mxGeometry>
        </mxCell>
        <mxCell id="lay7LSM0dUMBEN4WzvLE-1" value="" style="rounded=0;whiteSpace=wrap;html=1;" parent="1" vertex="1">
          <mxGeometry x="1430" y="-160" width="420" height="360" as="geometry" />
        </mxCell>
        <mxCell id="lay7LSM0dUMBEN4WzvLE-2" value="Arc" style="text;html=1;align=center;verticalAlign=middle;resizable=0;points=[];autosize=1;strokeColor=none;fillColor=none;" parent="1" vertex="1">
          <mxGeometry x="1430" y="-160" width="40" height="30" as="geometry" />
        </mxCell>
        <mxCell id="lay7LSM0dUMBEN4WzvLE-3" value="" style="rounded=0;whiteSpace=wrap;html=1;" parent="1" vertex="1">
          <mxGeometry x="1470" y="-130" width="350" height="300" as="geometry" />
        </mxCell>
        <mxCell id="lay7LSM0dUMBEN4WzvLE-4" value="UpSafeCell" style="text;html=1;align=center;verticalAlign=middle;resizable=0;points=[];autosize=1;strokeColor=none;fillColor=none;" parent="1" vertex="1">
          <mxGeometry x="1470" y="-120" width="80" height="30" as="geometry" />
        </mxCell>
        <mxCell id="V4Yo3UVCxOmrbkKmvPGk-2" style="edgeStyle=orthogonalEdgeStyle;rounded=0;orthogonalLoop=1;jettySize=auto;html=1;entryX=0.527;entryY=1.001;entryDx=0;entryDy=0;entryPerimeter=0;" parent="1" source="lay7LSM0dUMBEN4WzvLE-5" target="V4Yo3UVCxOmrbkKmvPGk-3" edge="1">
          <mxGeometry relative="1" as="geometry">
            <mxPoint x="2070" y="-110" as="targetPoint" />
          </mxGeometry>
        </mxCell>
        <mxCell id="lay7LSM0dUMBEN4WzvLE-5" value="" style="rounded=0;whiteSpace=wrap;html=1;" parent="1" vertex="1">
          <mxGeometry x="1510" y="-80" width="280" height="220" as="geometry" />
        </mxCell>
        <mxCell id="lay7LSM0dUMBEN4WzvLE-7" value="KERNEL_SPACE" style="text;html=1;align=center;verticalAlign=middle;resizable=0;points=[];autosize=1;strokeColor=none;fillColor=none;" parent="1" vertex="1">
          <mxGeometry x="1400" y="-210" width="120" height="30" as="geometry" />
        </mxCell>
        <mxCell id="V4Yo3UVCxOmrbkKmvPGk-1" value="MemorySet" style="text;html=1;align=center;verticalAlign=middle;resizable=0;points=[];autosize=1;strokeColor=none;fillColor=none;" parent="1" vertex="1">
          <mxGeometry x="1510" y="-70" width="80" height="30" as="geometry" />
        </mxCell>
        <mxCell id="V4Yo3UVCxOmrbkKmvPGk-3" value="" style="rounded=0;whiteSpace=wrap;html=1;" parent="1" vertex="1">
          <mxGeometry x="2010" y="-700" width="550" height="500" as="geometry" />
        </mxCell>
        <mxCell id="V4Yo3UVCxOmrbkKmvPGk-19" style="edgeStyle=orthogonalEdgeStyle;rounded=0;orthogonalLoop=1;jettySize=auto;html=1;entryX=1;entryY=0.5;entryDx=0;entryDy=0;" parent="1" source="V4Yo3UVCxOmrbkKmvPGk-4" target="V4Yo3UVCxOmrbkKmvPGk-13" edge="1">
          <mxGeometry relative="1" as="geometry" />
        </mxCell>
        <mxCell id="V4Yo3UVCxOmrbkKmvPGk-4" value="" style="rounded=0;whiteSpace=wrap;html=1;" parent="1" vertex="1">
          <mxGeometry x="2070" y="-660" width="450" height="180" as="geometry" />
        </mxCell>
        <mxCell id="V4Yo3UVCxOmrbkKmvPGk-11" style="edgeStyle=orthogonalEdgeStyle;rounded=0;orthogonalLoop=1;jettySize=auto;html=1;entryX=0;entryY=0.5;entryDx=0;entryDy=0;" parent="1" source="V4Yo3UVCxOmrbkKmvPGk-6" target="V4Yo3UVCxOmrbkKmvPGk-9" edge="1">
          <mxGeometry relative="1" as="geometry" />
        </mxCell>
        <mxCell id="V4Yo3UVCxOmrbkKmvPGk-6" value="" style="rounded=0;whiteSpace=wrap;html=1;" parent="1" vertex="1">
          <mxGeometry x="2070" y="-430" width="450" height="177" as="geometry" />
        </mxCell>
        <mxCell id="V4Yo3UVCxOmrbkKmvPGk-7" value="PageTable" style="text;html=1;align=center;verticalAlign=middle;resizable=0;points=[];autosize=1;strokeColor=none;fillColor=none;" parent="1" vertex="1">
          <mxGeometry x="2080" y="-650" width="80" height="30" as="geometry" />
        </mxCell>
        <mxCell id="V4Yo3UVCxOmrbkKmvPGk-8" value="Vec" style="text;html=1;align=center;verticalAlign=middle;resizable=0;points=[];autosize=1;strokeColor=none;fillColor=none;" parent="1" vertex="1">
          <mxGeometry x="2080" y="-420" width="40" height="30" as="geometry" />
        </mxCell>
        <mxCell id="V4Yo3UVCxOmrbkKmvPGk-9" value="" style="rounded=0;whiteSpace=wrap;html=1;" parent="1" vertex="1">
          <mxGeometry x="2840" y="-650" width="310" height="800" as="geometry" />
        </mxCell>
        <mxCell id="V4Yo3UVCxOmrbkKmvPGk-10" value="" style="endArrow=none;html=1;rounded=0;exitX=0;exitY=0.25;exitDx=0;exitDy=0;entryX=1;entryY=0.25;entryDx=0;entryDy=0;" parent="1" source="V4Yo3UVCxOmrbkKmvPGk-9" target="V4Yo3UVCxOmrbkKmvPGk-9" edge="1">
          <mxGeometry width="50" height="50" relative="1" as="geometry">
            <mxPoint x="2660" y="-290" as="sourcePoint" />
            <mxPoint x="2710" y="-340" as="targetPoint" />
          </mxGeometry>
        </mxCell>
        <mxCell id="V4Yo3UVCxOmrbkKmvPGk-12" value="MapArea" style="text;html=1;align=center;verticalAlign=middle;resizable=0;points=[];autosize=1;strokeColor=none;fillColor=none;" parent="1" vertex="1">
          <mxGeometry x="2850" y="-640" width="70" height="30" as="geometry" />
        </mxCell>
        <mxCell id="V4Yo3UVCxOmrbkKmvPGk-13" value="" style="rounded=0;whiteSpace=wrap;html=1;" parent="1" vertex="1">
          <mxGeometry x="1390" y="-1060" width="450" height="410" as="geometry" />
        </mxCell>
        <mxCell id="V4Yo3UVCxOmrbkKmvPGk-14" value="整个操作系统内核的第一个物理页帧号" style="rounded=0;whiteSpace=wrap;html=1;" parent="1" vertex="1">
          <mxGeometry x="1460" y="-1010" width="310" height="120" as="geometry" />
        </mxCell>
        <mxCell id="V4Yo3UVCxOmrbkKmvPGk-15" value="PhysPageNum" style="text;html=1;align=center;verticalAlign=middle;resizable=0;points=[];autosize=1;strokeColor=none;fillColor=none;" parent="1" vertex="1">
          <mxGeometry x="1470" y="-1000" width="100" height="30" as="geometry" />
        </mxCell>
        <mxCell id="V4Yo3UVCxOmrbkKmvPGk-24" style="edgeStyle=orthogonalEdgeStyle;rounded=0;orthogonalLoop=1;jettySize=auto;html=1;entryX=1;entryY=0.5;entryDx=0;entryDy=0;" parent="1" source="V4Yo3UVCxOmrbkKmvPGk-17" target="V4Yo3UVCxOmrbkKmvPGk-21" edge="1">
          <mxGeometry relative="1" as="geometry" />
        </mxCell>
        <mxCell id="V4Yo3UVCxOmrbkKmvPGk-17" value="" style="rounded=0;whiteSpace=wrap;html=1;" parent="1" vertex="1">
          <mxGeometry x="1460" y="-827" width="310" height="120" as="geometry" />
        </mxCell>
        <mxCell id="V4Yo3UVCxOmrbkKmvPGk-18" value="Vec" style="text;html=1;align=center;verticalAlign=middle;resizable=0;points=[];autosize=1;strokeColor=none;fillColor=none;" parent="1" vertex="1">
          <mxGeometry x="1470" y="-810" width="40" height="30" as="geometry" />
        </mxCell>
        <mxCell id="V4Yo3UVCxOmrbkKmvPGk-20" value="FrameTracker" style="text;html=1;align=center;verticalAlign=middle;resizable=0;points=[];autosize=1;strokeColor=none;fillColor=none;" parent="1" vertex="1">
          <mxGeometry x="880" y="-1300" width="100" height="30" as="geometry" />
        </mxCell>
        <mxCell id="V4Yo3UVCxOmrbkKmvPGk-22" value="" style="endArrow=none;html=1;rounded=0;exitX=0;exitY=0.25;exitDx=0;exitDy=0;entryX=1;entryY=0.25;entryDx=0;entryDy=0;" parent="1" source="V4Yo3UVCxOmrbkKmvPGk-21" target="V4Yo3UVCxOmrbkKmvPGk-21" edge="1">
          <mxGeometry width="50" height="50" relative="1" as="geometry">
            <mxPoint x="679" y="-960" as="sourcePoint" />
            <mxPoint x="729" y="-1010" as="targetPoint" />
          </mxGeometry>
        </mxCell>
        <mxCell id="V4Yo3UVCxOmrbkKmvPGk-25" value="" style="rounded=0;whiteSpace=wrap;html=1;" parent="1" vertex="1">
          <mxGeometry x="3490" y="-980" width="810" height="620" as="geometry" />
        </mxCell>
        <mxCell id="V4Yo3UVCxOmrbkKmvPGk-26" value="" style="edgeStyle=elbowEdgeStyle;elbow=horizontal;endArrow=classic;html=1;curved=0;rounded=0;endSize=8;startSize=8;exitX=1;exitY=0.114;exitDx=0;exitDy=0;exitPerimeter=0;entryX=0;entryY=0.5;entryDx=0;entryDy=0;" parent="1" source="V4Yo3UVCxOmrbkKmvPGk-9" target="V4Yo3UVCxOmrbkKmvPGk-25" edge="1">
          <mxGeometry width="50" height="50" relative="1" as="geometry">
            <mxPoint x="3080" y="-350" as="sourcePoint" />
            <mxPoint x="3490" y="-515" as="targetPoint" />
            <Array as="points">
              <mxPoint x="3320" y="-610" />
            </Array>
          </mxGeometry>
        </mxCell>
        <mxCell id="V4Yo3UVCxOmrbkKmvPGk-27" value="" style="rounded=0;whiteSpace=wrap;html=1;" parent="1" vertex="1">
          <mxGeometry x="3550" y="-940" width="690" height="90" as="geometry" />
        </mxCell>
        <mxCell id="V4Yo3UVCxOmrbkKmvPGk-28" value="VPNRange" style="text;html=1;align=center;verticalAlign=middle;resizable=0;points=[];autosize=1;strokeColor=none;fillColor=none;" parent="1" vertex="1">
          <mxGeometry x="3580" y="-920" width="80" height="30" as="geometry" />
        </mxCell>
        <mxCell id="V4Yo3UVCxOmrbkKmvPGk-37" style="edgeStyle=orthogonalEdgeStyle;rounded=0;orthogonalLoop=1;jettySize=auto;html=1;" parent="1" source="V4Yo3UVCxOmrbkKmvPGk-29" target="V4Yo3UVCxOmrbkKmvPGk-35" edge="1">
          <mxGeometry relative="1" as="geometry" />
        </mxCell>
        <mxCell id="V4Yo3UVCxOmrbkKmvPGk-29" value="" style="rounded=0;whiteSpace=wrap;html=1;" parent="1" vertex="1">
          <mxGeometry x="3550" y="-797" width="690" height="90" as="geometry" />
        </mxCell>
        <mxCell id="V4Yo3UVCxOmrbkKmvPGk-30" value="" style="rounded=0;whiteSpace=wrap;html=1;" parent="1" vertex="1">
          <mxGeometry x="3550" y="-630" width="690" height="90" as="geometry" />
        </mxCell>
        <mxCell id="V4Yo3UVCxOmrbkKmvPGk-31" value="" style="rounded=0;whiteSpace=wrap;html=1;" parent="1" vertex="1">
          <mxGeometry x="3550" y="-490" width="690" height="90" as="geometry" />
        </mxCell>
        <mxCell id="V4Yo3UVCxOmrbkKmvPGk-32" value="BTreeMap" style="text;html=1;align=center;verticalAlign=middle;resizable=0;points=[];autosize=1;strokeColor=none;fillColor=none;" parent="1" vertex="1">
          <mxGeometry x="3580" y="-770" width="80" height="30" as="geometry" />
        </mxCell>
        <mxCell id="V4Yo3UVCxOmrbkKmvPGk-33" value="MapType" style="text;html=1;align=center;verticalAlign=middle;resizable=0;points=[];autosize=1;strokeColor=none;fillColor=none;" parent="1" vertex="1">
          <mxGeometry x="3580" y="-610" width="70" height="30" as="geometry" />
        </mxCell>
        <mxCell id="V4Yo3UVCxOmrbkKmvPGk-34" value="MapPermission" style="text;html=1;align=center;verticalAlign=middle;resizable=0;points=[];autosize=1;strokeColor=none;fillColor=none;" parent="1" vertex="1">
          <mxGeometry x="3565" y="-465" width="110" height="30" as="geometry" />
        </mxCell>
        <mxCell id="V4Yo3UVCxOmrbkKmvPGk-35" value="" style="rounded=0;whiteSpace=wrap;html=1;" parent="1" vertex="1">
          <mxGeometry x="4920" y="-1690" width="490" height="1350" as="geometry" />
        </mxCell>
        <mxCell id="V4Yo3UVCxOmrbkKmvPGk-36" value="" style="endArrow=none;html=1;rounded=0;entryX=0.5;entryY=0;entryDx=0;entryDy=0;exitX=0.5;exitY=1;exitDx=0;exitDy=0;" parent="1" source="V4Yo3UVCxOmrbkKmvPGk-35" target="V4Yo3UVCxOmrbkKmvPGk-35" edge="1">
          <mxGeometry width="50" height="50" relative="1" as="geometry">
            <mxPoint x="3990" y="-730" as="sourcePoint" />
            <mxPoint x="4040" y="-780" as="targetPoint" />
          </mxGeometry>
        </mxCell>
        <mxCell id="V4Yo3UVCxOmrbkKmvPGk-41" value="" style="endArrow=none;html=1;rounded=0;exitX=0;exitY=0.25;exitDx=0;exitDy=0;entryX=1;entryY=0.25;entryDx=0;entryDy=0;" parent="1" source="V4Yo3UVCxOmrbkKmvPGk-35" target="V4Yo3UVCxOmrbkKmvPGk-35" edge="1">
          <mxGeometry width="50" height="50" relative="1" as="geometry">
            <mxPoint x="4680" y="-1130" as="sourcePoint" />
            <mxPoint x="4730" y="-1180" as="targetPoint" />
          </mxGeometry>
        </mxCell>
        <mxCell id="V4Yo3UVCxOmrbkKmvPGk-42" value="VirtPageNum" style="text;html=1;align=center;verticalAlign=middle;resizable=0;points=[];autosize=1;strokeColor=none;fillColor=none;" parent="1" vertex="1">
          <mxGeometry x="4990" y="-1550" width="90" height="30" as="geometry" />
        </mxCell>
        <mxCell id="V4Yo3UVCxOmrbkKmvPGk-43" value="FrameTracker" style="text;html=1;align=center;verticalAlign=middle;resizable=0;points=[];autosize=1;strokeColor=none;fillColor=none;" parent="1" vertex="1">
          <mxGeometry x="5240" y="-1550" width="100" height="30" as="geometry" />
        </mxCell>
        <mxCell id="V4Yo3UVCxOmrbkKmvPGk-44" value="NULL" style="text;html=1;align=center;verticalAlign=middle;resizable=0;points=[];autosize=1;strokeColor=none;fillColor=none;" parent="1" vertex="1">
          <mxGeometry x="2970" y="-560" width="50" height="30" as="geometry" />
        </mxCell>
        <mxCell id="V4Yo3UVCxOmrbkKmvPGk-46" value="第一个物理页帧号" style="text;html=1;align=center;verticalAlign=middle;resizable=0;points=[];autosize=1;strokeColor=none;fillColor=none;" parent="1" vertex="1">
          <mxGeometry x="954" y="-1230" width="120" height="30" as="geometry" />
        </mxCell>
        <mxCell id="V4Yo3UVCxOmrbkKmvPGk-47" value="" style="rounded=0;whiteSpace=wrap;html=1;" parent="1" vertex="1">
          <mxGeometry x="215" y="-1560" width="290" height="310" as="geometry" />
        </mxCell>
        <mxCell id="V4Yo3UVCxOmrbkKmvPGk-48" value="" style="endArrow=none;html=1;rounded=0;exitX=0;exitY=0.25;exitDx=0;exitDy=0;entryX=1;entryY=0.25;entryDx=0;entryDy=0;" parent="1" source="V4Yo3UVCxOmrbkKmvPGk-47" target="V4Yo3UVCxOmrbkKmvPGk-47" edge="1">
          <mxGeometry width="50" height="50" relative="1" as="geometry">
            <mxPoint x="980" y="-1140" as="sourcePoint" />
            <mxPoint x="1030" y="-1190" as="targetPoint" />
          </mxGeometry>
        </mxCell>
        <mxCell id="8ipGmKrsmIeTdAqvaL5l-2" value="" style="edgeStyle=elbowEdgeStyle;elbow=horizontal;endArrow=classic;html=1;curved=0;rounded=0;endSize=8;startSize=8;exitX=0.999;exitY=0.307;exitDx=0;exitDy=0;exitPerimeter=0;entryX=0;entryY=0.5;entryDx=0;entryDy=0;" edge="1" parent="1" source="a5TVN6-MtMvruNO3docQ-2" target="0a2UW_Dp2ymvLxH2NWsW-9">
          <mxGeometry width="50" height="50" relative="1" as="geometry">
            <mxPoint x="430" y="620" as="sourcePoint" />
            <mxPoint x="480" y="570" as="targetPoint" />
          </mxGeometry>
        </mxCell>
        <mxCell id="8ipGmKrsmIeTdAqvaL5l-3" value="" style="edgeStyle=elbowEdgeStyle;elbow=horizontal;endArrow=classic;html=1;curved=0;rounded=0;endSize=8;startSize=8;exitX=1;exitY=0.25;exitDx=0;exitDy=0;entryX=0;entryY=0.5;entryDx=0;entryDy=0;" edge="1" parent="1" source="a5TVN6-MtMvruNO3docQ-2" target="0a2UW_Dp2ymvLxH2NWsW-1">
          <mxGeometry width="50" height="50" relative="1" as="geometry">
            <mxPoint x="430" y="450" as="sourcePoint" />
            <mxPoint x="480" y="400" as="targetPoint" />
          </mxGeometry>
        </mxCell>
      </root>
    </mxGraphModel>
  </diagram>
</mxfile>
